<svg width="46" height="47" viewBox="0 0 46 47" fill="none" xmlns="http://www.w3.org/2000/svg">
<g filter="url(#filter0_d_329_1266)">
<g filter="url(#filter1_d_329_1266)">
<circle cx="23.0037" cy="19.394" r="15" fill="white"/>
</g>
</g>
<path d="M18.5122 14.5568C18.4642 14.6084 18.4261 14.6698 18.4002 14.7373C18.3742 14.8048 18.3608 14.8772 18.3608 14.9503C18.3608 15.0234 18.3742 15.0957 18.4002 15.1633C18.4261 15.2308 18.4642 15.2921 18.5122 15.3438L22.2771 19.4015L18.5122 23.4584C18.421 23.5639 18.3713 23.7034 18.3737 23.8475C18.376 23.9916 18.4302 24.1292 18.5248 24.2311C18.6194 24.333 18.747 24.3914 18.8807 24.394C19.0144 24.3965 19.1439 24.343 19.2417 24.2447L23.0066 20.187L26.7715 24.2447C26.8694 24.343 26.9988 24.3965 27.1326 24.394C27.2663 24.3914 27.3939 24.333 27.4885 24.2311C27.5831 24.1292 27.6372 23.9916 27.6396 23.8475C27.6419 23.7034 27.5923 23.5639 27.5011 23.4584L23.7369 19.4007L27.5018 15.3431C27.5958 15.2381 27.6478 15.0975 27.6465 14.9516C27.6453 14.8058 27.5909 14.6663 27.4952 14.5632C27.3994 14.4601 27.2699 14.4016 27.1346 14.4004C26.9992 14.3992 26.8689 14.4554 26.7715 14.5568L23.0066 18.6137L19.2417 14.5568C19.1449 14.4526 19.0137 14.394 18.8769 14.394C18.7401 14.394 18.6089 14.4526 18.5122 14.5568Z" fill="black"/>
<g filter="url(#filter2_d_329_1266)">
<g filter="url(#filter3_d_329_1266)">
<circle cx="23.0037" cy="19.394" r="15" fill="white"/>
</g>
</g>
<path d="M18.5122 14.5568C18.4642 14.6084 18.4261 14.6698 18.4002 14.7373C18.3742 14.8048 18.3608 14.8772 18.3608 14.9503C18.3608 15.0234 18.3742 15.0957 18.4002 15.1633C18.4261 15.2308 18.4642 15.2921 18.5122 15.3438L22.2771 19.4015L18.5122 23.4584C18.421 23.5639 18.3713 23.7034 18.3737 23.8475C18.376 23.9916 18.4302 24.1292 18.5248 24.2311C18.6194 24.333 18.747 24.3914 18.8807 24.394C19.0144 24.3965 19.1439 24.343 19.2417 24.2447L23.0066 20.187L26.7715 24.2447C26.8694 24.343 26.9988 24.3965 27.1326 24.394C27.2663 24.3914 27.3939 24.333 27.4885 24.2311C27.5831 24.1292 27.6372 23.9916 27.6396 23.8475C27.6419 23.7034 27.5923 23.5639 27.5011 23.4584L23.7369 19.4007L27.5018 15.3431C27.5958 15.2381 27.6478 15.0975 27.6465 14.9516C27.6453 14.8058 27.5909 14.6663 27.4952 14.5632C27.3994 14.4601 27.2699 14.4016 27.1346 14.4004C26.9992 14.3992 26.8689 14.4554 26.7715 14.5568L23.0066 18.6137L19.2417 14.5568C19.1449 14.4526 19.0137 14.394 18.8769 14.394C18.7401 14.394 18.6089 14.4526 18.5122 14.5568Z" fill="black"/>
<defs>
<filter id="filter0_d_329_1266" x="4.00366" y="4.39404" width="38" height="38" filterUnits="userSpaceOnUse" color-interpolation-filters="sRGB">
<feFlood flood-opacity="0" result="BackgroundImageFix"/>
<feColorMatrix in="SourceAlpha" type="matrix" values="0 0 0 0 0 0 0 0 0 0 0 0 0 0 0 0 0 0 127 0" result="hardAlpha"/>
<feOffset dy="4"/>
<feGaussianBlur stdDeviation="2"/>
<feComposite in2="hardAlpha" operator="out"/>
<feColorMatrix type="matrix" values="0 0 0 0 0 0 0 0 0 0 0 0 0 0 0 0 0 0 0.11 0"/>
<feBlend mode="normal" in2="BackgroundImageFix" result="effect1_dropShadow_329_1266"/>
<feBlend mode="normal" in="SourceGraphic" in2="effect1_dropShadow_329_1266" result="shape"/>
</filter>
<filter id="filter1_d_329_1266" x="0.00366211" y="0.394043" width="46" height="46" filterUnits="userSpaceOnUse" color-interpolation-filters="sRGB">
<feFlood flood-opacity="0" result="BackgroundImageFix"/>
<feColorMatrix in="SourceAlpha" type="matrix" values="0 0 0 0 0 0 0 0 0 0 0 0 0 0 0 0 0 0 127 0" result="hardAlpha"/>
<feMorphology radius="4" operator="dilate" in="SourceAlpha" result="effect1_dropShadow_329_1266"/>
<feOffset dy="4"/>
<feGaussianBlur stdDeviation="2"/>
<feComposite in2="hardAlpha" operator="out"/>
<feColorMatrix type="matrix" values="0 0 0 0 0.820833 0 0 0 0 0.820833 0 0 0 0 0.820833 0 0 0 0.25 0"/>
<feBlend mode="normal" in2="BackgroundImageFix" result="effect1_dropShadow_329_1266"/>
<feBlend mode="normal" in="SourceGraphic" in2="effect1_dropShadow_329_1266" result="shape"/>
</filter>
<filter id="filter2_d_329_1266" x="4.00366" y="4.39404" width="38" height="38" filterUnits="userSpaceOnUse" color-interpolation-filters="sRGB">
<feFlood flood-opacity="0" result="BackgroundImageFix"/>
<feColorMatrix in="SourceAlpha" type="matrix" values="0 0 0 0 0 0 0 0 0 0 0 0 0 0 0 0 0 0 127 0" result="hardAlpha"/>
<feOffset dy="4"/>
<feGaussianBlur stdDeviation="2"/>
<feComposite in2="hardAlpha" operator="out"/>
<feColorMatrix type="matrix" values="0 0 0 0 0 0 0 0 0 0 0 0 0 0 0 0 0 0 0.11 0"/>
<feBlend mode="normal" in2="BackgroundImageFix" result="effect1_dropShadow_329_1266"/>
<feBlend mode="normal" in="SourceGraphic" in2="effect1_dropShadow_329_1266" result="shape"/>
</filter>
<filter id="filter3_d_329_1266" x="0.00366211" y="0.394043" width="46" height="46" filterUnits="userSpaceOnUse" color-interpolation-filters="sRGB">
<feFlood flood-opacity="0" result="BackgroundImageFix"/>
<feColorMatrix in="SourceAlpha" type="matrix" values="0 0 0 0 0 0 0 0 0 0 0 0 0 0 0 0 0 0 127 0" result="hardAlpha"/>
<feMorphology radius="4" operator="dilate" in="SourceAlpha" result="effect1_dropShadow_329_1266"/>
<feOffset dy="4"/>
<feGaussianBlur stdDeviation="2"/>
<feComposite in2="hardAlpha" operator="out"/>
<feColorMatrix type="matrix" values="0 0 0 0 0.820833 0 0 0 0 0.820833 0 0 0 0 0.820833 0 0 0 0.25 0"/>
<feBlend mode="normal" in2="BackgroundImageFix" result="effect1_dropShadow_329_1266"/>
<feBlend mode="normal" in="SourceGraphic" in2="effect1_dropShadow_329_1266" result="shape"/>
</filter>
</defs>
</svg>
