<svg width="21" height="21" viewBox="0 0 21 21" fill="none" xmlns="http://www.w3.org/2000/svg">
<path d="M10.3367 0.120605C8.35886 0.120605 6.42546 0.707095 4.78097 1.80591C3.13648 2.90472 1.85476 4.46651 1.09788 6.29377C0.341003 8.12103 0.142969 10.1317 0.528822 12.0715C0.914674 14.0113 1.86708 15.7931 3.26561 17.1917C4.66413 18.5902 6.44596 19.5426 8.38577 19.9285C10.3256 20.3143 12.3362 20.1163 14.1635 19.3594C15.9908 18.6025 17.5526 17.3208 18.6514 15.6763C19.7502 14.0318 20.3367 12.0984 20.3367 10.1206C20.3335 7.4694 19.279 4.92768 17.4043 3.05299C15.5296 1.17831 12.9879 0.123733 10.3367 0.120605ZM13.7067 13.4906C13.5362 13.661 13.305 13.7568 13.0639 13.7568C12.8229 13.7568 12.5917 13.661 12.4212 13.4906L9.69395 10.7633C9.52345 10.5929 9.42763 10.3617 9.42758 10.1206V4.66606C9.42758 4.42495 9.52336 4.19372 9.69385 4.02324C9.86434 3.85275 10.0956 3.75697 10.3367 3.75697C10.5778 3.75697 10.809 3.85275 10.9795 4.02324C11.15 4.19372 11.2458 4.42495 11.2458 4.66606V9.74424L13.7067 12.2051C13.8771 12.3756 13.9728 12.6068 13.9728 12.8479C13.9728 13.0889 13.8771 13.3201 13.7067 13.4906Z" fill="#F3C87A"/>
</svg>
