<svg width="44" height="63" viewBox="0 0 44 63" fill="none" xmlns="http://www.w3.org/2000/svg">
<path d="M34.5596 62.5874H9.98821C7.54443 62.5874 5.20074 61.6076 3.47273 59.8635C1.74471 58.1194 0.773926 55.7539 0.773926 53.2874L0.773926 9.8874C0.773926 7.42089 1.74471 5.0554 3.47273 3.31131C5.20074 1.56722 7.54443 0.587402 9.98821 0.587402L34.5596 0.587402C37.0034 0.587402 39.3471 1.56722 41.0751 3.31131C42.8031 5.0554 43.7739 7.42089 43.7739 9.8874V53.2874C43.7739 55.7539 42.8031 58.1194 41.0751 59.8635C39.3471 61.6076 37.0034 62.5874 34.5596 62.5874ZM9.98821 5.2374C8.76632 5.2374 7.59448 5.72731 6.73047 6.59936C5.86646 7.4714 5.38107 8.65415 5.38107 9.8874V53.2874C5.38107 54.5207 5.86646 55.7034 6.73047 56.5754C7.59448 57.4475 8.76632 57.9374 9.98821 57.9374H34.5596C35.7815 57.9374 36.9534 57.4475 37.8174 56.5754C38.6814 55.7034 39.1668 54.5207 39.1668 53.2874V9.8874C39.1668 8.65415 38.6814 7.4714 37.8174 6.59936C36.9534 5.72731 35.7815 5.2374 34.5596 5.2374H32.2561C32.2544 6.26461 31.8494 7.24928 31.1298 7.97563C30.4101 8.70198 29.4345 9.11076 28.4168 9.1124H16.1311C15.1133 9.11076 14.1377 8.70198 13.4181 7.97563C12.6984 7.24928 12.2934 6.26461 12.2918 5.2374H9.98821Z" fill="#F3C87A"/>
</svg>
