<svg width="76" height="75" viewBox="0 0 76 75" fill="none" xmlns="http://www.w3.org/2000/svg">
<path d="M69.776 74.3913H3.9206C1.81126 74.3913 0.32227 72.3129 0.989189 70.3122L5.1149 57.9042C5.54913 56.6323 6.72791 55.7793 8.06175 55.7793H9.51969C9.08546 56.2446 8.75971 56.7874 8.55808 57.4078L5.96793 65.1628C5.48713 66.6052 5.71972 68.1252 6.6038 69.3505C7.48788 70.5913 8.8683 71.2893 10.3882 71.2893H63.3239C64.8283 71.2893 66.2087 70.5913 67.0928 69.3505C67.9769 68.1252 68.2095 66.6052 67.7287 65.1628L65.1385 57.4078C64.9369 56.7874 64.6112 56.2446 64.1769 55.7793H65.6349C66.9687 55.7793 68.1475 56.6323 68.5818 57.9042L72.7074 70.3122C73.3743 72.3129 71.8854 74.3913 69.776 74.3913Z" fill="#2E2E2E"/>
<path d="M64.5802 67.5356C64.2855 67.9544 63.8203 68.1871 63.3239 68.1871H10.3883C9.87644 68.1871 9.41115 67.9544 9.11646 67.5356C8.82177 67.1324 8.74424 66.6206 8.91482 66.1397L11.4895 58.3847C11.7067 57.7488 12.2961 57.3301 12.963 57.3301H16.2201L17.1817 65.0851H41.2842L42.2613 57.3301H60.7338C61.4007 57.3301 61.9901 57.7488 62.2072 58.3847L64.7819 66.1397C64.9525 66.6206 64.8749 67.1324 64.5802 67.5356Z" fill="#2E2E2E"/>
<path d="M18.3754 49.5752L19.9264 61.9832H38.5384L40.0894 49.5752H18.3754ZM26.1304 55.7792H23.0284V52.6772H26.1304V55.7792ZM30.7834 58.8812H27.6814V55.7792H30.7834V58.8812ZM35.4364 55.7792H32.3344V52.6772H35.4364V55.7792Z" fill="#2E2E2E"/>
<path d="M43.1974 43.3711H15.2794V46.4731H43.1974V43.3711Z" fill="#2E2E2E"/>
<path d="M32.0799 45.7828L29.4989 44.0621L34.1519 36.3071L36.7329 38.0278L32.0799 45.7828Z" fill="#2E2E2E"/>
<path d="M66.4877 36.826V44.8137C66.4877 46.5197 65.1073 47.9157 63.3857 47.9157C62.5326 47.9157 61.7571 47.559 61.1988 47.0005C60.6405 46.4422 60.2992 45.6667 60.2992 44.8137V36.826C62.3155 36.2676 64.4714 36.2676 66.4877 36.826Z" fill="#2E2E2E"/>
<path d="M71.0474 25.9537C72.2417 29.4125 74.0253 32.6696 75.3592 34.8565C75.9486 35.8337 75.0334 37.0279 73.9322 36.7022C72.1797 36.1904 70.396 35.5699 69.2947 34.9185C68.4106 34.3911 67.4646 34.0034 66.4874 33.7397V33.7242C64.4711 33.1659 62.3152 33.1659 60.2989 33.7242C59.3218 33.988 58.3757 34.3911 57.4761 34.9185C56.3904 35.5699 54.6068 36.1904 52.8542 36.7022C51.7529 37.0279 50.8379 35.8337 51.4273 34.8565C52.7611 32.6696 54.5447 29.4125 55.739 25.9537C56.0647 24.9921 53.5831 25.597 52.606 25.9072L52.5905 25.9227C51.5048 26.2794 50.5432 25.0851 51.1326 24.0926L57.0574 15.0813C57.5536 14.2437 55.3978 13.189 54.4362 13.189H54.2346C53.1178 13.189 52.5439 11.8552 53.335 11.0641C55.6149 8.75316 60.6867 3.5263 62.3928 1.24628C62.8891 0.579364 63.8818 0.579364 64.3781 1.24628C66.0841 3.5263 71.1715 8.75316 73.4514 11.0641C74.2269 11.8552 73.6686 13.189 72.5519 13.189H72.3502C71.3731 13.189 69.2327 14.2437 69.7291 15.0813L75.6539 24.0926C76.2277 25.0851 75.2817 26.2794 74.1804 25.9227L74.1649 25.9072C73.2033 25.597 70.7062 24.9921 71.0474 25.9537Z" fill="#2E2E2E"/>
</svg>
