<svg width="20" height="21" viewBox="0 0 20 21" fill="none" xmlns="http://www.w3.org/2000/svg">
<g clip-path="url(#clip0_329_1345)">
<path d="M0.00366211 6.94434V5.94434C0.00366211 5.14869 0.319732 4.38562 0.882341 3.82302C1.44495 3.26041 2.20801 2.94434 3.00366 2.94434H4.00366V0.944336H6.00366V2.94434H8.67066V0.944336H10.6707V2.94434H13.3377V0.944336H15.3377V2.94434H16.3377C17.1333 2.94434 17.8964 3.26041 18.459 3.82302C19.0216 4.38562 19.3377 5.14869 19.3377 5.94434V6.94434H0.00366211Z" fill="#F3C87A"/>
<path d="M19.3367 8.94434V17.9443C19.3367 18.74 19.0206 19.503 18.458 20.0657C17.8954 20.6283 17.1323 20.9443 16.3367 20.9443H3.00366C2.20801 20.9443 1.44495 20.6283 0.882341 20.0657C0.319732 19.503 0.00366211 18.74 0.00366211 17.9443V8.94434H19.3367ZM6.00366 15.6113H4.00366V17.6113H6.00366V15.6113ZM6.00366 11.6113H4.00366V13.6113H6.00366V11.6113ZM10.6707 15.6113H8.67066V17.6113H10.6707V15.6113ZM10.6707 11.6113H8.67066V13.6113H10.6707V11.6113ZM15.3377 15.6113H13.3377V17.6113H15.3377V15.6113ZM15.3377 11.6113H13.3377V13.6113H15.3377V11.6113Z" fill="#F3C87A"/>
</g>
<defs>
<clipPath id="clip0_329_1345">
<rect width="19.333" height="20" fill="white" transform="translate(0.00366211 0.944336)"/>
</clipPath>
</defs>
</svg>
