<svg width="74" height="75" viewBox="0 0 74 75" fill="none" xmlns="http://www.w3.org/2000/svg">
<path d="M55.8361 27.1141C56.4946 27.1141 57.1201 26.8408 57.5525 26.3652C57.9836 25.8888 58.1968 25.2399 58.1326 24.5853L56.6179 8.58584C56.4945 7.29743 55.3861 6.28737 54.0914 6.28737H48.1486V2.76416C48.1487 1.42982 47.0622 0.344727 45.7294 0.344727H44.4028C43.0689 0.344727 41.9829 1.42982 41.9829 2.76416V6.2875H19.314C18.0133 6.2875 16.9073 7.30344 16.7973 8.60186L15.4506 24.5955C15.3955 25.25 15.612 25.8962 16.0459 26.369C16.4801 26.8423 17.1069 27.1142 17.764 27.1142H18.9737V45.587C18.9737 46.2555 18.7092 47.2685 18.3809 47.8505L16.812 50.6269C16.4843 51.2087 16.2163 52.2218 16.2163 52.8904V73.5827C16.2163 74.2526 16.7578 74.7927 17.4267 74.7927H56.4428C57.1119 74.7927 57.6522 74.2524 57.6522 73.5827V52.8902C57.6522 52.2217 57.3675 51.2192 57.0154 50.6522L55.2639 47.8236C54.9125 47.256 54.6266 46.2547 54.6266 45.5855V27.1141H55.8361ZM55.8361 24.6944H55.8366L55.8361 25.9043V24.6944ZM26.8423 60.6524C26.8423 61.3209 26.3015 61.8623 25.6327 61.8623H21.7227C21.0532 61.8623 20.5131 61.3208 20.5131 60.6524V51.4474C20.5131 50.7781 21.0532 50.2368 21.7227 50.2368H25.6327C26.3015 50.2368 26.8423 50.7783 26.8423 51.4474V60.6524ZM25.9557 42.0509V32.8447C25.9557 32.1772 26.4965 31.6351 27.1654 31.6351H31.0753C31.7449 31.6351 32.2857 32.1772 32.2857 32.8447V42.0509C32.2857 42.7195 31.7449 43.2605 31.0753 43.2605H27.1654C26.4978 43.2603 25.9557 42.7195 25.9557 42.0509ZM41.3717 64.7925C41.3717 65.4617 40.8302 66.0019 40.1611 66.0019H33.3561C32.6872 66.0019 32.1464 65.4617 32.1464 64.7925V51.4474C32.1464 50.7781 32.6872 50.2368 33.3561 50.2368H40.1611C40.8304 50.2368 41.3717 50.7783 41.3717 51.4474V64.7925ZM42.4297 68.6486C42.4297 69.2747 41.8889 69.7838 41.2203 69.7838H32.2975C31.6284 69.7838 31.0876 69.276 31.0876 68.6486C31.0876 68.0219 31.6284 67.5147 32.2975 67.5147H41.2203C41.8889 67.5147 42.4297 68.0219 42.4297 68.6486ZM42.7319 73.2611H30.7854C30.1165 73.2611 29.5757 72.7863 29.5757 72.2025C29.5757 71.6181 30.1165 71.1432 30.7854 71.1432H42.7319C43.4012 71.1432 43.9425 71.6181 43.9425 72.2025C43.9425 72.7863 43.401 73.2611 42.7319 73.2611ZM42.4734 43.2603C41.8041 43.2603 41.2633 42.7194 41.2633 42.0508V32.8446C41.2633 32.1771 41.8042 31.635 42.4734 31.635H46.3836C47.0528 31.635 47.593 32.1771 47.593 32.8446V42.0508C47.593 42.7194 47.0528 43.2603 46.3836 43.2603H42.4734ZM52.8534 60.6524C52.8534 61.3209 52.3126 61.8623 51.644 61.8623H47.7331C47.0646 61.8623 46.5243 61.3208 46.5243 60.6524V51.4474C46.5243 50.7781 47.0646 50.2368 47.7331 50.2368H51.644C52.3126 50.2368 52.8534 50.7783 52.8534 51.4474V60.6524ZM45.049 24.6944C44.9662 24.5327 44.9071 24.3559 44.9045 24.1624C44.885 23.0359 44.8583 21.2275 44.8279 19.1889C44.773 15.7744 41.8155 13.0066 38.2184 13.0066H36.1253C32.5286 13.0066 29.6127 15.7744 29.6127 19.1889V24.1612C29.6127 24.3559 29.5572 24.5329 29.4763 24.6945H17.8718L19.2073 8.80625C19.211 8.76513 19.274 8.70693 19.3138 8.70693H41.9827C43.3161 8.70693 44.4027 7.62184 44.4027 6.2875V2.76416H45.7293V6.2875C45.7293 7.62184 46.814 8.70693 48.1486 8.70693H54.0914C54.1362 8.70693 54.2059 8.77234 54.2104 8.81586L55.7133 24.6944H45.049Z" fill="#2E2E2E"/>
<path d="M7.68634 52.972C5.54406 56.3166 4.57485 59.6063 4.26259 62.5796C3.8442 62.0431 3.12703 62.0711 2.74482 62.6668C-1.24431 68.8924 2.05636 74.7921 2.05636 74.7921H3.59121C3.61204 73.311 3.61925 71.8444 3.60083 70.3732C3.58774 68.5178 3.53581 66.6648 3.57933 64.7806C4.06194 66.6076 4.23976 68.4873 4.27247 70.3658C4.27874 71.8443 4.19023 73.3396 3.87771 74.792H5.52951C5.66595 74.3801 5.78089 73.9801 5.88115 73.5851C6.20676 74.3577 6.44652 74.792 6.44652 74.792H9.21199C9.24563 72.127 9.26311 69.4879 9.22787 66.8392C9.20571 63.4996 9.11039 60.1631 9.18769 56.7738C10.0576 60.0611 10.3772 63.4462 10.4363 66.8276C10.4475 69.4868 10.2861 72.179 9.7261 74.7921H12.6974C16.2931 64.0038 12.7411 56.3154 10.5429 52.9289C9.8134 51.81 8.40778 51.8462 7.68634 52.972Z" fill="#2E2E2E"/>
<path d="M71.7775 62.6456C71.372 62.0219 70.5919 62.0424 70.19 62.668C70.0537 62.8805 69.9458 63.0931 69.8256 63.3043C69.6006 60.1467 68.656 56.5896 66.3365 52.972C65.6144 51.8455 64.2099 51.8088 63.4816 52.9303C61.2833 56.3166 57.732 64.0051 61.327 74.7929H64.2983C63.7376 72.1798 63.5769 69.4881 63.5881 66.8289C63.6479 63.4464 63.967 60.0614 64.8362 56.7748C64.914 60.1661 64.8187 63.5013 64.7969 66.8408C64.762 69.4888 64.7769 72.1293 64.8124 74.7929H67.5782C67.5782 74.7929 68.076 73.8975 68.61 72.3573C68.9875 73.8589 69.5003 74.7929 69.5003 74.7929H71.0361C71.056 73.3119 71.0636 71.8458 71.0454 70.3747C71.0317 68.5187 70.98 66.667 71.023 64.7816C71.5059 66.6084 71.6834 68.4882 71.7164 70.3674C71.7227 71.8458 71.6348 73.3406 71.3227 74.7929H72.9732C74.9727 68.7983 72.9993 64.5261 71.7775 62.6456Z" fill="#2E2E2E"/>
</svg>
