<svg width="101" height="101" viewBox="0 0 101 101" fill="none" xmlns="http://www.w3.org/2000/svg">
<g clip-path="url(#clip0_329_1199)">
<path d="M27.8657 26.8555H26.6118L24.2687 38.5742H30.2089L27.8657 26.8555Z" fill="#567AB8"/>
<path d="M74.6376 50.0977C75.9026 53.4959 77.5852 56.2467 79.4473 58.5873C81.3094 56.2467 83.1874 53.4957 84.4524 50.0977H74.6376Z" fill="#F3C87A"/>
<path d="M91.9849 18.2793H55.6015L63.1878 79.1541C63.322 81.6439 62.6413 83.9881 61.0163 85.8232L48.1691 100.506H91.9849C96.8314 100.506 100.774 96.5633 100.774 91.7168V27.2637C100.774 22.4172 96.8314 18.2793 91.9849 18.2793Z" fill="#F3C87A"/>
<path d="M48.4622 7.79668C47.9157 3.40781 44.1649 0.0976562 39.7419 0.0976562H9.56299C4.7165 0.0976562 0.773926 4.04023 0.773926 8.88672V73.7305C0.773926 78.577 4.7165 82.5195 9.56299 82.5195C27.0767 82.5195 39.6757 82.5195 55.7644 82.5195C56.619 81.5426 57.3354 80.9309 57.3657 79.6557C57.3731 79.3359 48.5019 8.11387 48.4622 7.79668ZM36.7005 56.0951C35.147 56.4148 33.5733 55.4062 33.253 53.7977L31.3806 44.4336H23.0972L21.2247 53.7977C20.9101 55.3826 19.3821 56.424 17.7772 56.0951C16.1923 55.7775 15.1622 54.2355 15.4798 52.6477L21.339 23.3508C21.6136 21.9832 22.8153 20.9961 24.2114 20.9961H30.2661C31.6622 20.9961 32.864 21.9832 33.1386 23.3508L38.9979 52.6477C39.3155 54.2355 38.2856 55.7775 36.7005 56.0951Z" fill="#567AB8"/>
<path d="M35.0046 88.3789L35.5074 92.3986C35.8425 95.0906 37.6312 97.8357 40.5734 99.2064C46.1257 93.0943 42.7666 96.792 50.4091 88.3789H35.0046Z" fill="#567AB8"/>
<path d="M82.1622 72.8251C80.7904 72.8251 79.4492 72.666 78.1388 72.3476C76.8489 72.0293 75.6818 71.522 74.6376 70.8257C73.5934 70.1493 72.7641 69.274 72.1499 68.1997C71.5356 67.1254 71.2285 65.8323 71.2285 64.3203C71.2285 62.6889 71.5664 61.1969 72.242 59.8441C72.9177 58.4714 73.8698 57.2578 75.0983 56.2034C76.3268 55.149 77.7805 54.2737 79.4595 53.5773C81.1589 52.8612 83.0119 52.3538 85.0184 52.0554L86.032 55.9945C84.2302 56.3128 82.6638 56.7306 81.3329 57.2479C80.0225 57.7651 78.9374 58.3719 78.0774 59.0682C77.2175 59.7645 76.5725 60.5105 76.1425 61.3063C75.733 62.122 75.5283 62.9774 75.5283 63.8727C75.5283 64.5889 75.6614 65.2155 75.9275 65.7527C76.2142 66.2898 76.593 66.7374 77.0639 67.0955C77.5348 67.4735 78.0569 67.7719 78.6302 67.9908C79.2035 68.2295 79.7973 68.3986 80.4116 68.4981C81.0258 68.5976 81.6094 68.6473 82.1622 68.6473C83.575 68.6473 84.8854 68.518 86.0934 68.2594C87.3219 68.0007 88.3968 67.6824 89.3182 67.3044L90.5467 71.154C90.0553 71.3927 89.3591 71.6414 88.4582 71.9C87.5778 72.1586 86.5848 72.3775 85.4791 72.5565C84.394 72.7356 83.2883 72.8251 82.1622 72.8251ZM76.0504 56.2929C75.3338 56.0144 74.6683 55.6165 74.0541 55.0993C73.4603 54.582 72.9791 53.9454 72.6106 53.1894C72.2625 52.4135 72.0885 51.5282 72.0885 50.5335C72.0885 49.2802 72.4263 48.1959 73.102 47.2808C73.7777 46.3657 74.6786 45.6594 75.8047 45.1621C76.9308 44.6647 78.1593 44.416 79.4902 44.416C80.1454 44.416 80.7494 44.4558 81.3022 44.5354C81.8755 44.615 82.4591 44.7343 83.0528 44.8935L82.3772 48.8624C81.9472 48.7629 81.507 48.6833 81.0565 48.6237C80.6061 48.564 80.2068 48.5341 79.8587 48.5341C79.1421 48.5341 78.5176 48.6336 77.9853 48.8326C77.4734 49.0315 77.0741 49.32 76.7875 49.698C76.5213 50.0561 76.3882 50.4838 76.3882 50.9811C76.3882 51.379 76.5111 51.757 76.7568 52.1151C77.0229 52.4732 77.3608 52.7915 77.7703 53.07C78.1798 53.3287 78.6302 53.5475 79.1216 53.7266C79.613 53.8857 80.0942 53.9752 80.5651 53.9951L76.0504 56.2929Z" fill="#FFFCF7"/>
</g>
<defs>
<clipPath id="clip0_329_1199">
<rect width="100" height="100" fill="white" transform="translate(0.773926 0.0976562)"/>
</clipPath>
</defs>
</svg>
