<svg width="69" height="69" viewBox="0 0 69 69" fill="none" xmlns="http://www.w3.org/2000/svg">
<path d="M67.5644 55.7072C67.0341 55.4896 66.5192 55.2196 66.0297 54.8932C63.2653 53.0487 59.8496 52.403 56.7115 52.9249V48.3553H58.7009C59.8005 48.3553 60.6903 47.4654 60.6903 46.3659V38.4082C60.6903 37.3087 59.8005 36.4188 58.7009 36.4188H56.7115C56.7115 29.3227 56.7115 24.4917 56.7115 17.3946L61.6929 20.2413C62.627 20.7784 63.8543 20.469 64.4069 19.5012C64.9528 18.5473 64.6206 17.3311 63.6668 16.7871L35.815 0.871647C35.2049 0.521951 34.4512 0.521951 33.8412 0.871647L5.9894 16.7869C5.03554 17.3309 4.70338 18.5469 5.24924 19.5009C5.79324 20.4509 7.0094 20.7871 7.96326 20.2411L12.9447 17.3943C12.9447 24.4923 12.9447 29.3215 12.9447 36.4186H10.9553C9.85571 36.4186 8.96587 37.3084 8.96587 38.408V46.3656C8.96587 47.4651 9.85571 48.355 10.9553 48.355H12.9447V52.8805C9.86727 52.4188 6.53022 53.0876 3.82469 54.893C3.29051 55.2485 2.72128 55.5437 2.13252 55.7711C1.08343 56.1773 0.560815 57.3544 0.964831 58.4036C1.37097 59.4527 2.55394 59.9753 3.59731 59.5713C4.46577 59.2353 5.30117 58.8019 6.08211 58.2813C9.02351 56.323 12.9524 56.323 15.8938 58.2813C20.2029 61.1567 25.7786 61.1567 30.0877 58.2813C33.0291 56.323 36.8253 56.323 39.7667 58.2813C44.0757 61.1565 49.6515 61.1567 53.9607 58.2813C56.9021 56.323 60.831 56.3211 63.7724 58.2833C64.4911 58.7593 65.2431 59.1576 66.0182 59.4761C67.0498 59.8958 68.2467 59.4042 68.6759 58.3648C69.1012 57.3256 68.6058 56.1346 67.5644 55.7072ZM40.7963 28.5937V24.6148H52.7328V28.5937H40.7963ZM48.7539 40.5302V44.509H44.7751V40.5302H48.7539ZM44.7751 10.7062L48.2265 12.6783H44.7751V10.7062ZM36.8175 6.15866L40.7963 8.43241V12.6783H36.8175V6.15866ZM40.7963 40.5302V44.509H36.8175V40.5302H38.8069H40.7963ZM36.8175 24.6148V36.5514H32.8387V24.6148H36.8175ZM28.8598 8.43241L32.8386 6.15866V12.6783H28.8598V8.43241ZM32.8387 40.5302V44.509H28.8599V40.5302H30.8493H32.8387ZM24.8809 10.7062V12.6783H21.4295L24.8809 10.7062ZM16.9233 24.6148H28.8599V28.5937H16.9233V24.6148ZM24.8809 40.5302V44.509H20.9021V40.5302H24.8809ZM12.9445 44.509V40.5302H14.9339H16.9233V44.509H12.9445ZM51.703 55.0258C48.7616 56.9841 44.9654 56.9841 42.024 55.0258C37.7149 52.1504 32.1392 52.1504 27.8301 55.0258C24.8887 56.9841 21.0925 56.9841 18.1511 55.0258C17.7551 54.7616 17.3385 54.5478 16.9232 54.3322V48.4878H52.7326V54.4441H52.7327C52.387 54.6317 52.035 54.8044 51.703 55.0258ZM56.7116 44.509H52.7327V40.5302H54.7221H56.7115V44.509H56.7116Z" fill="#2E2E2E"/>
<path d="M67.5644 63.7972C67.0341 63.5795 66.5192 63.3095 66.0297 62.9832C61.7205 60.1078 56.0121 60.1078 51.7031 62.9832C48.7617 64.9415 44.9656 64.9415 42.0242 62.9832C37.715 60.1078 32.1393 60.1078 27.8302 62.9832C24.8888 64.9415 21.0926 64.9415 18.1512 62.9832C13.8421 60.1078 8.13366 60.1078 3.82469 62.9832C3.29051 63.3387 2.72128 63.634 2.13252 63.8614C1.08343 64.2675 0.560815 65.4446 0.964831 66.4938C1.37097 67.5429 2.55394 68.0637 3.59731 67.6615C4.46577 67.3255 5.30117 66.8921 6.08211 66.3715C9.02351 64.4132 12.9524 64.4132 15.8938 66.3715C20.2029 69.2469 25.7786 69.2469 30.0877 66.3715C33.0291 64.4132 36.8253 64.4132 39.7667 66.3715C44.0757 69.2468 49.6515 69.2469 53.9607 66.3715C56.9021 64.4132 60.831 64.4113 63.7724 66.3735C64.4911 66.8495 65.2431 67.2478 66.0182 67.5663C67.0498 67.9821 68.2467 67.4945 68.6759 66.4551C69.1012 65.4155 68.6058 64.2245 67.5644 63.7972Z" fill="#2E2E2E"/>
</svg>
