<svg width="25" height="25" viewBox="0 0 25 25" fill="none" xmlns="http://www.w3.org/2000/svg">
<path d="M21.6507 10.3715C21.4518 10.3715 21.2611 10.4505 21.1204 10.5912C20.9798 10.7318 20.9007 10.9226 20.9007 11.1215V13.3115L16.8907 9.30149C16.5562 8.98354 16.1123 8.80625 15.6507 8.80625C15.1892 8.80625 14.7453 8.98354 14.4107 9.30149L9.65073 14.0605L8.89073 13.3015C8.55618 12.9835 8.11227 12.8062 7.65073 12.8062C7.18919 12.8062 6.74529 12.9835 6.41073 13.3015L4.40073 15.3105V7.12149C4.40073 5.54449 5.07373 4.87149 6.65073 4.87149H14.6507C14.8496 4.87149 15.0404 4.79247 15.1811 4.65182C15.3217 4.51116 15.4007 4.3204 15.4007 4.12149C15.4007 3.92257 15.3217 3.73181 15.1811 3.59116C15.0404 3.4505 14.8496 3.37149 14.6507 3.37149H6.65073C6.14407 3.31276 5.63069 3.36936 5.149 3.53705C4.6673 3.70475 4.22975 3.97919 3.86909 4.33985C3.50843 4.70051 3.23399 5.13805 3.0663 5.61975C2.89861 6.10145 2.84201 6.61483 2.90073 7.12149V17.1215C2.84201 17.6281 2.89861 18.1415 3.0663 18.6232C3.23399 19.1049 3.50843 19.5425 3.86909 19.9031C4.22975 20.2638 4.6673 20.5382 5.149 20.7059C5.63069 20.8736 6.14407 20.9302 6.65073 20.8715H18.6507C19.1574 20.9302 19.6708 20.8736 20.1525 20.7059C20.6342 20.5382 21.0717 20.2638 21.4324 19.9031C21.793 19.5425 22.0675 19.1049 22.2352 18.6232C22.4029 18.1415 22.4595 17.6281 22.4007 17.1215V11.1215C22.4007 10.9226 22.3217 10.7318 22.1811 10.5912C22.0404 10.4505 21.8496 10.3715 21.6507 10.3715ZM18.6507 19.3715H6.65073C5.17873 19.3715 4.50273 18.7715 4.41773 17.4145L7.47073 14.3615C7.49074 14.3322 7.51759 14.3082 7.54896 14.2917C7.58033 14.2751 7.61526 14.2665 7.65073 14.2665C7.6862 14.2665 7.72114 14.2751 7.7525 14.2917C7.78387 14.3082 7.81072 14.3322 7.83073 14.3615L8.76973 15.3015C9.00774 15.5264 9.32278 15.6517 9.65023 15.6517C9.97769 15.6517 10.2927 15.5264 10.5307 15.3015L15.4707 10.3615C15.4907 10.3322 15.5176 10.3082 15.549 10.2917C15.5803 10.2751 15.6153 10.2665 15.6507 10.2665C15.6862 10.2665 15.7211 10.2751 15.7525 10.2917C15.7839 10.3082 15.8107 10.3322 15.8307 10.3615L20.9007 15.4325V17.1215C20.9007 18.6985 20.2277 19.3715 18.6507 19.3715ZM18.1207 5.15149C18.0511 5.08192 17.9958 4.99931 17.9581 4.90836C17.9204 4.81742 17.901 4.71994 17.901 4.62149C17.901 4.52304 17.9204 4.42555 17.9581 4.33461C17.9958 4.24367 18.0511 4.16105 18.1207 4.09149L19.6207 2.59149C19.7615 2.45128 19.9521 2.37256 20.1507 2.37256C20.3494 2.37256 20.54 2.45128 20.6807 2.59149L22.1807 4.09149C22.2544 4.16015 22.3135 4.24295 22.3545 4.33495C22.3955 4.42695 22.4175 4.52626 22.4193 4.62696C22.4211 4.72767 22.4026 4.8277 22.3649 4.92108C22.3271 5.01447 22.271 5.09931 22.1998 5.17052C22.1286 5.24174 22.0437 5.29789 21.9503 5.33561C21.8569 5.37333 21.7569 5.39185 21.6562 5.39008C21.5555 5.3883 21.4562 5.36626 21.3642 5.32527C21.2722 5.28428 21.1894 5.22517 21.1207 5.15149L20.9007 4.93249V7.12149C20.9007 7.3204 20.8217 7.51116 20.6811 7.65182C20.5404 7.79247 20.3496 7.87149 20.1507 7.87149C19.9518 7.87149 19.7611 7.79247 19.6204 7.65182C19.4798 7.51116 19.4007 7.3204 19.4007 7.12149V4.93249L19.1807 5.15149C19.1112 5.22115 19.0286 5.27642 18.9376 5.31412C18.8467 5.35183 18.7492 5.37124 18.6507 5.37124C18.5523 5.37124 18.4548 5.35183 18.3639 5.31412C18.2729 5.27642 18.1903 5.22115 18.1207 5.15149ZM8.65073 7.87149C8.89796 7.87149 9.13963 7.9448 9.3452 8.08215C9.55076 8.2195 9.71097 8.41472 9.80558 8.64313C9.90019 8.87154 9.92495 9.12287 9.87671 9.36535C9.82848 9.60783 9.70943 9.83055 9.53462 10.0054C9.3598 10.1802 9.13707 10.2992 8.8946 10.3475C8.65212 10.3957 8.40079 10.3709 8.17238 10.2763C7.94397 10.1817 7.74875 10.0215 7.6114 9.81595C7.47404 9.61039 7.40073 9.36871 7.40073 9.12149C7.40073 8.78997 7.53243 8.47202 7.76685 8.2376C8.00127 8.00318 8.31921 7.87149 8.65073 7.87149Z" fill="black"/>
</svg>
