<svg width="76" height="73" viewBox="0 0 76 73" fill="none" xmlns="http://www.w3.org/2000/svg">
<path d="M38.0507 43.2323C46.1494 38.4598 55.2341 35.2671 64.8528 33.7836C59.0231 30.6591 49.9965 27.3174 38.0507 27.3174C26.4433 27.3174 17.5156 30.4308 11.2644 33.7861C20.8772 35.2706 29.9564 38.4624 38.0507 43.2323Z" fill="#2E2E2E"/>
<path d="M75.2752 37.1968C63.2869 37.5354 51.9095 40.6716 42.2545 45.9142C47.0156 49.2008 51.2159 52.9984 54.7643 57.234C58.6327 61.8518 61.6387 66.8874 63.7192 72.2203H73.1055C74.3038 72.2203 75.2752 71.2489 75.2752 70.0506V37.1968Z" fill="#2E2E2E"/>
<path d="M0.827026 47.6616C8.14448 48.0771 15.0542 50.5948 20.9275 55.0074C26.7337 59.3696 31.1634 65.4362 33.53 72.2203H59.0293C50.2533 51.9932 26.9924 37.9359 0.827026 37.1968V47.6616Z" fill="#2E2E2E"/>
<path d="M28.8981 72.2208C24.2915 60.8033 13.2823 52.8458 0.827026 52.0117V70.0509C0.827026 71.2492 1.79849 72.2206 2.99679 72.2206L28.8981 72.2208Z" fill="#2E2E2E"/>
<path d="M68.7244 30.9802C69.0817 31.1902 69.4276 31.4 69.7664 31.6094V24.6137C72.6199 23.6948 74.6906 21.0154 74.6906 17.8603V8.01193C74.6906 4.10034 71.5082 0.917969 67.5966 0.917969C63.6851 0.917969 60.5027 4.10034 60.5027 8.01193V17.8605C60.5027 21.0155 62.5736 23.6949 65.4269 24.6139V29.1967C66.6306 29.7953 67.7311 30.3967 68.7244 30.9802Z" fill="#2E2E2E"/>
<path d="M35.8814 23.0158V19.0592C35.8814 17.861 36.8529 16.8895 38.0512 16.8895C39.2495 16.8895 40.2209 17.861 40.2209 19.0592V23.0158C43.755 23.1292 47.0414 23.5123 50.0695 24.0829V15.8292C50.4208 16.0088 50.8017 16.0967 51.1805 16.0967C51.926 16.0967 52.6622 15.7579 53.144 15.1158C53.9565 14.0325 53.7369 12.4957 52.6536 11.6832L39.5222 1.83466C38.6505 1.18076 37.4517 1.18076 36.5799 1.83466L23.4486 11.6832C22.3653 12.4957 22.1457 14.0325 22.9581 15.1158C23.6845 16.0845 24.9897 16.3601 26.0327 15.8269V24.0829C29.061 23.5125 32.3473 23.1292 35.8814 23.0158Z" fill="#2E2E2E"/>
<path d="M10.6755 29.1965V24.6137C13.5289 23.6948 15.5997 21.0154 15.5997 17.8603V8.01193C15.5997 4.10034 12.4173 0.917969 8.50572 0.917969C4.59414 0.917969 1.41162 4.1002 1.41162 8.01193V17.8605C1.41162 21.0155 3.4825 23.6949 6.33582 24.6139V31.6096C6.67462 31.4002 7.02054 31.1902 7.3778 30.9804C8.37108 30.3967 9.47166 29.7953 10.6755 29.1965Z" fill="#2E2E2E"/>
</svg>
