<svg width="25" height="25" viewBox="0 0 25 25" fill="none" xmlns="http://www.w3.org/2000/svg">
<path fill-rule="evenodd" clip-rule="evenodd" d="M3.83667 11.2621C3.83667 6.66223 7.68055 2.94434 12.3301 2.94434C16.9928 2.94434 20.8367 6.66223 20.8367 11.2621C20.8367 13.58 19.9937 15.732 18.6062 17.5559C17.0755 19.5679 15.1888 21.3208 13.0652 22.6968C12.5792 23.0148 12.1405 23.0388 11.6071 22.6968C9.47141 21.3208 7.58476 19.5679 6.06717 17.5559C4.67865 15.732 3.83667 13.58 3.83667 11.2621ZM9.53101 11.5206C9.53101 13.0616 10.7884 14.2735 12.3302 14.2735C13.873 14.2735 15.1425 13.0616 15.1425 11.5206C15.1425 9.99167 13.873 8.7207 12.3302 8.7207C10.7884 8.7207 9.53101 9.99167 9.53101 11.5206Z" fill="#F3C87A"/>
</svg>
