<svg width="51" height="51" viewBox="0 0 51 51" fill="none" xmlns="http://www.w3.org/2000/svg">
<rect x="0.773926" y="0.295898" width="50" height="50" rx="5" fill="white"/>
<path d="M36.1115 22.9873C36.072 23.0432 36.0198 23.089 35.9593 23.1208C35.8988 23.1527 35.8317 23.1698 35.7634 23.1706C35.5884 23.1706 35.5133 23.096 35.3458 22.9123C35.2321 22.7585 35.0848 22.633 34.9152 22.5453C34.7456 22.4577 34.5582 22.4103 34.3675 22.4067C34.2666 22.4067 34.1698 22.447 34.0985 22.5186C34.0271 22.5902 33.9871 22.6874 33.9871 22.7887C33.9871 22.89 34.0271 22.9871 34.0985 23.0588C34.1698 23.1304 34.2666 23.1706 34.3675 23.1706C34.5421 23.1706 34.6172 23.2452 34.7848 23.4287C34.8985 23.5826 35.0458 23.7082 35.2155 23.7959C35.3851 23.8836 35.5726 23.931 35.7634 23.9345C35.9347 23.9346 36.1039 23.8971 36.2592 23.8245C36.4145 23.7518 36.5521 23.6459 36.6622 23.5141C36.6981 23.4782 36.7265 23.4353 36.7457 23.3881C36.7649 23.3409 36.7745 23.2903 36.7739 23.2394C36.7734 23.1884 36.7626 23.1381 36.7424 23.0913C36.7221 23.0446 36.6928 23.0024 36.656 22.9672C36.6192 22.932 36.5759 22.9046 36.5284 22.8866C36.4809 22.8685 36.4303 22.8601 36.3796 22.862C36.3288 22.8639 36.279 22.8759 36.2329 22.8974C36.1869 22.919 36.1456 22.9495 36.1115 22.9873Z" fill="#567AB8"/>
<path d="M36.1115 20.3135C36.072 20.3694 36.0198 20.4151 35.9593 20.447C35.8988 20.4789 35.8317 20.4959 35.7634 20.4968C35.5884 20.4968 35.5133 20.4222 35.3458 20.2385C35.2321 20.0847 35.0848 19.9591 34.9152 19.8715C34.7456 19.7838 34.5582 19.7364 34.3675 19.7329C34.2666 19.7329 34.1698 19.7732 34.0985 19.8448C34.0271 19.9164 33.9871 20.0136 33.9871 20.1149C33.9871 20.2162 34.0271 20.3133 34.0985 20.3849C34.1698 20.4566 34.2666 20.4968 34.3675 20.4968C34.5421 20.4968 34.6172 20.5714 34.7848 20.7549C34.8985 20.9088 35.0458 21.0344 35.2155 21.1221C35.3851 21.2098 35.5726 21.2572 35.7634 21.2607C35.9347 21.2608 36.1039 21.2233 36.2592 21.1506C36.4145 21.078 36.5521 20.9721 36.6622 20.8403C36.6981 20.8043 36.7265 20.7615 36.7457 20.7143C36.7649 20.6671 36.7745 20.6165 36.7739 20.5655C36.7734 20.5146 36.7626 20.4642 36.7424 20.4175C36.7221 20.3708 36.6928 20.3286 36.656 20.2934C36.6192 20.2582 36.5759 20.2308 36.5284 20.2127C36.4809 20.1947 36.4303 20.1863 36.3796 20.1882C36.3288 20.1901 36.279 20.2021 36.2329 20.2236C36.1869 20.2451 36.1456 20.2757 36.1115 20.3135Z" fill="#567AB8"/>
<path d="M36.1115 17.6401C36.072 17.6961 36.0198 17.7418 35.9593 17.7737C35.8988 17.8055 35.8317 17.8226 35.7634 17.8235C35.5884 17.8235 35.5133 17.7489 35.3458 17.5652C35.2321 17.4114 35.0848 17.2858 34.9152 17.1982C34.7456 17.1105 34.5582 17.0631 34.3675 17.0596C34.2666 17.0596 34.1698 17.0998 34.0985 17.1714C34.0271 17.2431 33.9871 17.3402 33.9871 17.4415C33.9871 17.5428 34.0271 17.64 34.0985 17.7116C34.1698 17.7832 34.2666 17.8235 34.3675 17.8235C34.5421 17.8235 34.6172 17.8981 34.7848 18.0816C34.8985 18.2354 35.0458 18.361 35.2155 18.4487C35.3851 18.5364 35.5726 18.5838 35.7634 18.5873C35.9347 18.5875 36.1039 18.5499 36.2592 18.4773C36.4145 18.4047 36.5521 18.2987 36.6622 18.167C36.6981 18.131 36.7265 18.0881 36.7457 18.0409C36.7649 17.9938 36.7745 17.9432 36.7739 17.8922C36.7734 17.8412 36.7626 17.7909 36.7424 17.7442C36.7221 17.6974 36.6928 17.6552 36.656 17.6201C36.6192 17.5849 36.5759 17.5575 36.5284 17.5394C36.4809 17.5213 36.4303 17.513 36.3796 17.5148C36.3288 17.5167 36.279 17.5288 36.2329 17.5503C36.1869 17.5718 36.1456 17.6023 36.1115 17.6401Z" fill="#567AB8"/>
<path d="M32.9155 17.39L30.7455 18.1161L23.653 16.0393C22.6916 15.2895 21.5079 14.8841 20.2905 14.8877C18.9439 14.8869 17.6436 15.3809 16.6348 16.2764C15.6261 17.172 14.9787 18.4072 14.8149 19.7491C14.6511 21.0909 14.9821 22.4466 15.7455 23.5602C16.5089 24.6738 17.652 25.4685 18.9589 25.7941V31.1204C18.9599 31.4581 19.0725 31.7861 19.2791 32.0527C19.4856 32.3194 19.7744 32.5097 20.1003 32.5939V35.3217C20.1003 35.423 20.1404 35.5202 20.2117 35.5918C20.2831 35.6635 20.3798 35.7037 20.4808 35.7037C20.5817 35.7037 20.6784 35.6635 20.7498 35.5918C20.8211 35.5202 20.8612 35.423 20.8612 35.3217V32.5939C21.1871 32.5097 21.4759 32.3194 21.6824 32.0527C21.889 31.7861 22.0016 31.4581 22.0026 31.1204V25.6902C22.5986 25.4944 23.1568 25.1975 23.653 24.8125L30.7455 22.7357L32.9155 23.4619C32.9727 23.481 33.0336 23.4862 33.0931 23.477C33.1527 23.4679 33.2093 23.4447 33.2582 23.4093C33.3071 23.3739 33.3469 23.3274 33.3744 23.2735C33.4019 23.2197 33.4163 23.16 33.4163 23.0995V17.7523C33.4163 17.6918 33.402 17.6321 33.3745 17.5782C33.347 17.5244 33.3072 17.4778 33.2583 17.4424C33.2094 17.407 33.1528 17.3838 33.0932 17.3747C33.0336 17.3656 32.9727 17.3708 32.9155 17.39ZM20.2905 22.9086C19.8014 22.9086 19.3233 22.7629 18.9166 22.4902C18.5099 22.2174 18.193 21.8296 18.0058 21.376C17.8186 20.9223 17.7696 20.4232 17.8651 19.9416C17.9605 19.46 18.196 19.0176 18.5419 18.6704C18.8877 18.3232 19.3284 18.0868 19.8081 17.991C20.2878 17.8952 20.785 17.9443 21.2369 18.1323C21.6888 18.3202 22.075 18.6384 22.3467 19.0466C22.6185 19.4549 22.7635 19.9349 22.7635 20.4259C22.7627 21.0841 22.502 21.7151 22.0383 22.1806C21.5747 22.646 20.9462 22.9078 20.2905 22.9086Z" fill="#567AB8"/>
</svg>
