<svg width="31" height="30" viewBox="0 0 31 30" fill="none" xmlns="http://www.w3.org/2000/svg">
<path d="M29.7236 0.0161414L20.8756 1.77402C20.4653 1.85641 20.1692 2.21695 20.1692 2.63579V9.00887C19.8929 8.91037 19.5999 8.84697 19.2903 8.84697C17.8363 8.84697 16.6534 10.0298 16.6534 11.4838C16.6534 12.9378 17.8363 14.1206 19.2903 14.1206C20.7443 14.1206 21.9271 12.9378 21.9271 11.4838V5.11417L29.0172 3.70787V7.25099C28.7409 7.15249 28.4479 7.08909 28.1383 7.08909C26.6843 7.08909 25.5014 8.27191 25.5014 9.72591C25.5014 11.1799 26.6843 12.3627 28.1383 12.3627C29.5923 12.3627 30.7751 11.1799 30.7751 9.72591V0.877913C30.7751 0.342931 30.2939 -0.0900932 29.7236 0.0161414Z" fill="#2E2E2E"/>
<path d="M12.2587 19.3941C12.7441 19.3941 13.1376 19.0006 13.1376 18.5152C13.1376 18.0297 12.7441 17.6362 12.2587 17.6362C11.7733 17.6362 11.3798 18.0297 11.3798 18.5152C11.3798 19.0006 11.7733 19.3941 12.2587 19.3941Z" fill="#2E2E2E"/>
<path d="M19.2903 15.8783C16.8671 15.8783 14.8956 13.9067 14.8956 11.4836C14.8956 10.0447 15.6004 8.77655 16.6725 7.97449C15.3144 7.40511 13.8237 7.08887 12.2587 7.08887C5.94825 7.08887 0.773926 12.2046 0.773926 18.5151C0.773926 24.8256 5.94825 29.9999 12.2587 29.9999C18.5692 29.9999 23.685 24.8256 23.685 18.5151C23.685 16.9501 23.3688 15.4595 22.7993 14.1013C21.9973 15.1735 20.7292 15.8783 19.2903 15.8783ZM6.10616 18.5151C6.10616 19.0009 5.71304 19.394 5.22722 19.394C4.7414 19.394 4.34828 19.0009 4.34828 18.5151C4.34828 14.153 7.89668 10.6046 12.2587 10.6046C12.7446 10.6046 13.1377 10.9977 13.1377 11.4836C13.1377 11.9694 12.7446 12.3625 12.2587 12.3625C8.86656 12.3625 6.10616 15.123 6.10616 18.5151ZM9.62192 18.5151C9.62192 17.0611 10.8047 15.8783 12.2587 15.8783C13.7127 15.8783 14.8956 17.0611 14.8956 18.5151C14.8956 19.9691 13.7127 21.1519 12.2587 21.1519C10.8047 21.1519 9.62192 19.9692 9.62192 18.5151ZM12.2587 26.4256C11.7729 26.4256 11.3798 26.0324 11.3798 25.5466C11.3798 25.0608 11.7729 24.6677 12.2587 24.6677C15.6509 24.6677 18.4113 21.9073 18.4113 18.5151C18.4113 18.0293 18.8044 17.6362 19.2903 17.6362C19.7761 17.6362 20.1692 18.0293 20.1692 18.5151C20.1692 22.8772 16.6208 26.4256 12.2587 26.4256Z" fill="#2E2E2E"/>
</svg>
