<svg width="20" height="21" viewBox="0 0 20 21" fill="none" xmlns="http://www.w3.org/2000/svg">
<path d="M8.00367 20.339C7.73846 20.339 7.4841 20.2336 7.29657 20.0461C7.10903 19.8586 7.00367 19.6042 7.00367 19.339V11.25L1.15067 6.65C0.792334 6.37045 0.502684 6.01264 0.303881 5.60394C0.105078 5.19524 0.00239076 4.74648 0.00367399 4.292V2.75C0.00367399 2.21957 0.214388 1.71086 0.58946 1.33579C0.964533 0.960714 1.47324 0.75 2.00367 0.75L18.0037 0.75C18.5341 0.75 19.0428 0.960714 19.4179 1.33579C19.793 1.71086 20.0037 2.21957 20.0037 2.75V4.292C20.0051 4.74651 19.9025 5.19532 19.7037 5.60404C19.5049 6.01276 19.2151 6.37055 18.8567 6.65L13.0037 11.25V17.931C13.0036 18.138 12.9393 18.3399 12.8197 18.5088C12.7 18.6777 12.5309 18.8053 12.3357 18.874L8.33567 20.282C8.22903 20.3196 8.11677 20.3389 8.00367 20.339ZM2.00367 2.25C1.87107 2.25 1.74389 2.30268 1.65012 2.39645C1.55635 2.49021 1.50367 2.61739 1.50367 2.75V4.292C1.50282 4.51937 1.55401 4.74392 1.65333 4.94845C1.75265 5.15298 1.89746 5.33207 2.07667 5.472L7.92967 10.072C8.1088 10.2116 8.25364 10.3903 8.35313 10.5945C8.45261 10.7987 8.5041 11.0229 8.50367 11.25V18.632L11.5037 17.576V11.25C11.503 11.0227 11.5542 10.7982 11.6535 10.5936C11.7528 10.3891 11.8976 10.21 12.0767 10.07L17.9307 5.47C18.1098 5.32997 18.2545 5.15086 18.3538 4.94635C18.4531 4.74184 18.5044 4.51734 18.5037 4.29V2.75C18.5037 2.61739 18.451 2.49021 18.3572 2.39645C18.2635 2.30268 18.1363 2.25 18.0037 2.25H2.00367Z" fill="#567AB8"/>
</svg>
