<svg width="31" height="30" viewBox="0 0 31 30" fill="none" xmlns="http://www.w3.org/2000/svg">
<g clip-path="url(#clip0_329_1254)">
<path d="M23.4861 27.199L29.0115 21.6677V28.3416C29.0115 28.7517 28.6833 29.0798 28.2732 29.0798H3.2771C2.8728 29.0798 2.53882 28.7517 2.53882 28.3416V26.6834C2.9314 27.0642 3.4646 27.2927 4.05054 27.2927C4.17944 27.2693 23.2693 27.3396 23.3806 27.2693C23.4216 27.2517 23.4568 27.2283 23.4861 27.199ZM23.7732 21.199C23.6677 21.199 23.5798 21.2869 23.5798 21.3923V26.1619C24.8162 24.9255 27.3064 22.4353 28.5427 21.199H23.7732ZM25.1326 3.68531V1.41773C25.1267 0.755618 24.1423 0.749758 24.1306 1.41773V3.68531C24.1423 4.34741 25.1208 4.34156 25.1326 3.68531ZM19.2322 3.68531V1.41773C19.2205 0.755618 18.2361 0.749758 18.2244 1.41773V3.68531C18.2361 4.34741 19.2205 4.34156 19.2322 3.68531ZM13.3259 3.68531V1.41773C13.3142 0.755618 12.3357 0.749758 12.324 1.41773V3.68531C12.3357 4.34741 13.3142 4.34156 13.3259 3.68531ZM6.92749 4.18335C7.20288 4.18335 7.4314 3.95484 7.4314 3.67945V1.41773C7.41968 0.755618 6.4353 0.755618 6.42358 1.41773V3.68531C6.41772 3.9607 6.64624 4.18335 6.92749 4.18335ZM30.0017 2.88257H25.7947V3.68531C25.7947 4.32398 25.2732 4.85132 24.6287 4.85132C23.99 4.85132 23.4685 4.32398 23.4685 3.68531V2.88257H19.9001V3.68531C19.9001 4.32398 19.3728 4.85132 18.7283 4.85132C18.0837 4.85132 17.5623 4.32398 17.5623 3.68531V2.88257H13.9939V3.68531C13.9939 4.32398 13.4666 4.85132 12.822 4.85132C12.1833 4.85132 11.6619 4.32398 11.6619 3.68531V2.88257H8.09351V3.68531C8.09351 4.32398 7.56616 4.85132 6.92749 4.85132C6.28296 4.85132 5.75562 4.32398 5.75562 3.68531V2.88257H1.55444C1.15601 2.88257 0.83374 3.20484 0.83374 3.59741V5.41382C0.83374 5.81226 1.15601 6.13452 1.55444 6.13452H30.0017C30.3943 6.13452 30.7166 5.81226 30.7166 5.41382V3.59741C30.7166 3.20484 30.3943 2.88257 30.0017 2.88257ZM2.53882 6.80249H29.0115V20.5369H23.7732C23.3044 20.5369 22.9177 20.9236 22.9177 21.3923V26.6306H4.05054C3.21851 26.6306 2.54468 25.9568 2.54468 25.1248V6.80249H2.53882ZM22.9705 18.8669C22.9822 18.6853 22.8533 18.5212 22.6658 18.5037C22.5486 18.4978 22.449 18.3806 22.4607 18.2634C22.49 17.8298 21.8455 17.7712 21.7986 18.2048C21.7869 18.322 21.6755 18.4158 21.5583 18.4099C21.1248 18.3806 21.0603 19.0193 21.4998 19.072C21.6345 19.0779 21.7224 19.2126 21.7048 19.3416C21.7107 19.7576 22.3259 19.7869 22.3669 19.3709C22.3787 19.2537 22.49 19.1599 22.6072 19.1658C22.7947 19.1834 22.9529 19.0486 22.9705 18.8669ZM22.3083 15.9138C20.6736 15.6794 19.4958 16.7986 19.2791 17.0212C18.9802 17.3376 19.4548 17.8005 19.7595 17.4841C20.4275 16.74 22.2322 15.9607 23.6208 17.2263C23.7615 17.3435 23.9724 17.3318 24.0896 17.197C24.5232 16.6755 22.9939 15.9959 22.3083 15.9138ZM22.5896 13.2302C22.6482 12.4275 21.4587 12.322 21.3767 13.1189C21.324 13.9275 22.5017 14.0271 22.5896 13.2302ZM24.5583 13.6228C24.4353 13.6111 24.3416 13.5056 24.3533 13.3826C24.3826 12.9431 23.738 12.8904 23.6912 13.324C23.6853 13.447 23.5681 13.5349 23.4509 13.5291C23.0173 13.4998 22.9529 14.1384 23.3923 14.1912C23.533 14.2029 23.6091 14.3318 23.5974 14.4607C23.5974 14.8709 24.2244 14.906 24.2595 14.49C24.2712 14.3669 24.3826 14.2732 24.4998 14.2849C24.6873 14.3025 24.8396 14.1677 24.8572 13.9802C24.8806 13.8103 24.7341 13.6404 24.5583 13.6228ZM22.2439 10.7166C21.7283 10.9568 20.8376 11.7185 21.3474 12.0701C21.4998 12.1697 21.7107 12.1169 21.8044 11.9587C22.3376 11.0388 23.4978 11.0681 24.0544 11.4138C24.4412 11.6189 24.7576 11.0447 24.3708 10.8279C24.1951 10.7341 23.2458 10.2654 22.2439 10.7166ZM20.2048 9.17554C20.1931 9.35718 20.322 9.52124 20.5095 9.53882C20.6619 9.55054 20.8025 9.62671 20.9021 9.7439C21.0134 9.87281 21.0486 10.031 21.0369 10.2009C21.0369 10.3709 21.1658 10.5173 21.3416 10.5291C21.5173 10.5525 21.6873 10.4119 21.699 10.2302C21.7283 9.90796 22.0095 9.67359 22.3318 9.69702C22.7712 9.73804 22.824 9.08179 22.3904 9.03491C22.074 9.01148 21.8279 8.71851 21.863 8.4021C21.8748 8.22046 21.7458 8.0564 21.5583 8.04468C21.3708 8.0271 21.2126 8.16187 21.2009 8.34351C21.1716 8.66577 20.8904 8.90601 20.5681 8.87671C20.3806 8.85913 20.2224 8.99976 20.2048 9.17554ZM19.6658 14.0505C19.3494 14.1619 19.2849 14.4197 19.2322 14.5837C18.8162 14.2029 18.2478 14.3904 18.1423 14.9412C18.0017 14.8416 17.8025 14.6716 17.4802 14.7712C17.0876 14.9001 17.2517 15.4978 17.656 15.4099C18.113 15.8259 18.6697 15.656 18.7927 15.0818C19.2498 15.4861 19.7947 15.2517 19.9001 14.6716C20.0583 14.6013 20.1345 14.4255 20.0818 14.2615C20.0291 14.0916 19.8416 13.9978 19.6658 14.0505ZM15.2771 13.365C14.8435 13.3474 14.7908 13.9802 15.2244 14.0271C16.2029 14.0505 17.6267 13.9978 18.9392 12.615C19.5134 12.0408 20.4216 10.0427 19.6775 9.9607C19.5017 9.93726 19.3259 10.0662 19.3083 10.2478C19.238 10.7634 19.0388 11.5134 18.447 12.1755C17.2986 13.4587 15.6052 13.3943 15.2771 13.365ZM16.4607 9.90796C15.9099 9.79077 15.5173 10.2302 15.699 10.7693C15.5291 10.7517 15.2654 10.7048 15.0427 10.9568C14.7673 11.2673 15.2126 11.7009 15.5173 11.4197C16.1033 11.5369 16.5193 11.156 16.3318 10.5642C16.8826 10.6814 17.2751 10.2419 17.0935 9.70288C17.697 9.82007 18.0427 9.3396 17.8435 8.78882C18.0896 8.45484 17.5974 8.06226 17.3279 8.37866C17.1111 8.63062 17.1873 8.88843 17.2224 9.05835C16.6892 8.93531 16.2849 9.3689 16.4548 9.89038C16.4548 9.89038 16.4548 9.89624 16.4607 9.90796ZM15.3416 9.11695C16.1443 9.16382 16.2439 7.98609 15.447 7.8982C14.6443 7.8396 14.5505 9.03491 15.3416 9.11695ZM12.7107 8.49585C13.4666 9.40991 13.408 11.074 12.7869 11.9294C12.5525 12.2927 13.1033 12.656 13.3435 12.2869C13.5837 11.906 13.9939 11.115 13.9353 10.0544C13.8943 9.1814 13.3201 7.63452 12.781 8.03296C12.6287 8.13843 12.5994 8.34937 12.7107 8.49585ZM7.22632 25.4529L18.7517 19.7576C18.7986 19.74 18.8455 19.7107 18.8806 19.6755C19.1384 19.4001 18.9626 19.0662 17.99 17.9939C16.7126 16.5818 14.1814 14.2029 12.6873 13.0134C11.4861 12.0759 11.1697 11.8591 10.8826 12.3513C10.2439 13.8689 8.77319 17.3904 8.11694 18.9431C7.60718 20.1736 6.42944 22.9626 5.90796 24.2224C5.53296 25.0017 6.45874 25.8689 7.22632 25.4529ZM16.9353 17.8533C15.9685 16.8337 13.9646 14.947 12.8865 14.0447C14.1697 15.3748 15.5291 16.658 16.9353 17.8533ZM11.24 13.1892L10.5779 14.7712L14.0232 16.113C13.0564 15.1814 12.072 14.2498 11.24 13.1892ZM17.8904 19.4412C16.988 18.8201 16.1619 18.0701 15.3416 17.3376L10.3259 15.3806L9.72241 16.8162L17.2517 19.7576L17.8904 19.4412ZM16.4431 20.156L9.4646 17.4314L8.86108 18.8728L14.5505 21.0935L16.4431 20.156ZM13.7419 21.4919L8.60327 19.488L7.99976 20.9236L11.8494 22.4236L13.7419 21.4919ZM6.92749 24.8611L11.0466 22.8279L7.74194 21.5388L6.51147 24.4744C6.4353 24.656 6.54663 24.7791 6.58179 24.8142C6.6228 24.8435 6.75171 24.949 6.92749 24.8611Z" fill="#2E2E2E"/>
</g>
<defs>
<clipPath id="clip0_329_1254">
<rect width="30" height="30" fill="white" transform="translate(0.775146)"/>
</clipPath>
</defs>
</svg>
