<svg width="19" height="21" viewBox="0 0 19 21" fill="none" xmlns="http://www.w3.org/2000/svg">
<g clip-path="url(#clip0_329_1256)">
<path d="M3.01342 4.33092C4.45683 2.90558 6.37603 2.12061 8.41728 2.12061C10.4586 2.12061 12.3777 2.90554 13.8212 4.33092C15.2646 5.75623 16.0596 7.65123 16.0596 9.66692C16.0596 11.6826 15.2646 13.5777 13.8212 15.003L8.79489 19.9662C8.69061 20.0692 8.55393 20.1206 8.41728 20.1206C8.2806 20.1206 8.14392 20.0691 8.03968 19.9662L3.01352 15.0031C1.57008 13.5777 0.775172 11.6827 0.775137 9.66696C0.775172 7.6512 1.57004 5.7562 3.01342 4.33092ZM6.01723 12.0368C6.65829 12.6698 7.51062 13.0185 8.41725 13.0185C9.32387 13.0185 10.1762 12.6699 10.8172 12.0369C11.4583 11.4038 11.8114 10.5622 11.8114 9.66692C11.8114 8.7717 11.4583 7.93006 10.8172 7.297C10.1762 6.66397 9.32387 6.31536 8.41725 6.31536C7.51062 6.31536 6.65829 6.66397 6.01723 7.297C5.37616 7.92999 5.02309 8.77163 5.02309 9.66689C5.02312 10.5621 5.3762 11.4038 6.01723 12.0368Z" fill="#686868"/>
</g>
<defs>
<clipPath id="clip0_329_1256">
<rect width="18.2286" height="20" fill="white" transform="matrix(-1 0 0 1 19.0037 0.120605)"/>
</clipPath>
</defs>
</svg>
