<svg width="51" height="51" viewBox="0 0 51 51" fill="none" xmlns="http://www.w3.org/2000/svg">
<rect x="0.773926" y="0.295898" width="50" height="50" rx="5" fill="white"/>
<g clip-path="url(#clip0_329_1279)">
<path d="M36.7739 17.9626V17.0459C36.7739 16.3166 36.4842 15.6171 35.9685 15.1014C35.4527 14.5856 34.7533 14.2959 34.0239 14.2959C33.2946 14.2959 32.5951 14.5856 32.0794 15.1014C31.5637 15.6171 31.2739 16.3166 31.2739 17.0459V19.7959H26.6906V17.0459C26.6906 16.8028 26.7872 16.5696 26.9591 16.3977C27.131 16.2258 27.3641 16.1292 27.6073 16.1292C27.8504 16.1292 28.0835 16.2258 28.2554 16.3977C28.4273 16.5696 28.5239 16.8028 28.5239 17.0459V17.9626H30.3573V17.0459C30.3573 16.3166 30.0675 15.6171 29.5518 15.1014C29.0361 14.5856 28.3366 14.2959 27.6073 14.2959C26.8779 14.2959 26.1784 14.5856 25.6627 15.1014C25.147 15.6171 24.8573 16.3166 24.8573 17.0459V27.2667C24.4369 27.169 24.0062 27.1228 23.5746 27.1292C21.3746 27.1292 21.3746 28.0459 19.1746 28.0459C16.9746 28.0459 16.9739 27.1292 14.7739 27.1292V30.7959C16.9739 30.7959 16.9739 31.7126 19.1739 31.7126C21.3739 31.7126 21.3739 30.7959 23.5739 30.7959C25.7739 30.7959 25.7739 31.7126 27.9739 31.7126C30.1739 31.7126 30.1739 30.7959 32.3739 30.7959C34.5739 30.7959 34.5739 31.7126 36.7739 31.7126V28.0459C34.8502 28.0459 34.6083 27.345 33.1073 27.169V17.0459C33.1073 16.8028 33.2038 16.5696 33.3757 16.3977C33.5477 16.2258 33.7808 16.1292 34.0239 16.1292C34.267 16.1292 34.5002 16.2258 34.6721 16.3977C34.844 16.5696 34.9406 16.8028 34.9406 17.0459V17.9626H36.7739ZM31.2739 21.6292V23.4626H26.6906V21.6292H31.2739ZM26.6906 27.9084V25.2959H31.2739V27.227C30.0852 27.4629 29.7293 28.0459 27.9739 28.0459C27.5422 28.0523 27.1112 28.0062 26.6906 27.9084Z" fill="#567AB8"/>
<path d="M27.9739 32.6291C25.7739 32.6291 25.7739 31.7124 23.5739 31.7124C21.3739 31.7124 21.3739 32.6291 19.1739 32.6291C16.9739 32.6291 16.9739 31.7124 14.7739 31.7124V36.2957H36.7739V32.6291C34.5739 32.6291 34.5739 31.7124 32.3739 31.7124C30.1739 31.7124 30.1739 32.6291 27.9739 32.6291Z" fill="#567AB8"/>
</g>
<defs>
<clipPath id="clip0_329_1279">
<rect width="22" height="22" fill="white" transform="translate(14.7739 14.2959)"/>
</clipPath>
</defs>
</svg>
