<svg width="20" height="21" viewBox="0 0 20 21" fill="none" xmlns="http://www.w3.org/2000/svg">
<path d="M19.2044 20.1206C19.0993 20.1209 18.9952 20.1003 18.8981 20.06C18.8011 20.0197 18.713 19.9605 18.639 19.8859L15.8027 17.0508C13.9114 18.65 11.4753 19.4564 9.00333 19.3015C6.5314 19.1466 4.21498 18.0423 2.53822 16.2195C0.861447 14.3966 -0.0459186 11.9963 0.0057539 9.52017C0.0574264 7.04401 1.06414 4.68363 2.81549 2.93234C4.56684 1.18104 6.92731 0.174368 9.40356 0.122697C11.8798 0.0710265 14.2802 0.97836 16.1031 2.65507C17.926 4.33178 19.0303 6.64811 19.1852 9.11996C19.3401 11.5918 18.5337 14.0279 16.9344 15.9191L19.7697 18.7553C19.8814 18.8672 19.9575 19.0097 19.9883 19.1647C20.0191 19.3198 20.0033 19.4806 19.9428 19.6267C19.8823 19.7728 19.7799 19.8976 19.6484 19.9856C19.517 20.0735 19.3625 20.1205 19.2044 20.1206ZM9.60417 1.72091C8.02189 1.72091 6.47515 2.1901 5.15953 3.06913C3.84391 3.94817 2.81851 5.19758 2.213 6.65936C1.60749 8.12115 1.44906 9.72965 1.75775 11.2815C2.06643 12.8333 2.82837 14.2587 3.94722 15.3775C5.06606 16.4963 6.49155 17.2583 8.04342 17.5669C9.5953 17.8756 11.2039 17.7172 12.6657 17.1117C14.1275 16.5062 15.377 15.4808 16.2561 14.1653C17.1351 12.8497 17.6043 11.303 17.6043 9.72078C17.6021 7.59978 16.7585 5.56629 15.2586 4.06651C13.7588 2.56674 11.7253 1.72317 9.60417 1.72091Z" fill="#567AB8"/>
</svg>
