<svg width="40" height="41" viewBox="0 0 40 41" fill="none" xmlns="http://www.w3.org/2000/svg">
<g clip-path="url(#clip0_329_1324)">
<path d="M9.60412 28.9438C8.6039 28.9438 7.75393 29.2938 7.05387 29.9938C6.35407 30.6944 6.00391 31.5442 6.00391 32.5444C6.00391 33.5447 6.35381 34.3945 7.05387 35.0951C7.75419 35.7951 8.60416 36.1451 9.60412 36.1451C10.5875 36.1451 11.4332 35.7951 12.1417 35.0951C12.8499 34.3954 13.204 33.5447 13.204 32.5444C13.204 31.5442 12.85 30.695 12.1417 29.9938C11.4331 29.2944 10.5875 28.9438 9.60412 28.9438Z" fill="#07183B"/>
<path d="M8.80416 21.344C8.80416 20.2441 8.41267 19.3027 7.62925 18.5187C6.84592 17.7353 5.9041 17.3438 4.80414 17.3438C3.70409 17.3438 2.76245 17.7354 1.97902 18.5187C1.19578 19.3021 0.804199 20.2437 0.804199 21.344C0.804199 22.4438 1.19569 23.385 1.97902 24.1686C2.76245 24.9522 3.70409 25.3439 4.80414 25.3439C5.9041 25.3439 6.84592 24.9522 7.62925 24.1686C8.41267 23.3856 8.80416 22.4438 8.80416 21.344Z" fill="#07183B"/>
<path d="M32.0037 12.1449C32.5533 12.1449 33.0249 11.9488 33.416 11.5573C33.8077 11.1654 34.0039 10.6944 34.0039 10.1445C34.0039 9.59439 33.8077 9.12374 33.416 8.73216C33.0246 8.34032 32.5533 8.14453 32.0037 8.14453C31.4536 8.14453 30.9825 8.34067 30.5908 8.73216C30.1994 9.12383 30.0035 9.59439 30.0035 10.1445C30.0035 10.6947 30.1994 11.1654 30.5908 11.5573C30.9825 11.9491 31.4536 12.1449 32.0037 12.1449Z" fill="#07183B"/>
<path d="M9.60444 5.74463C8.38759 5.74463 7.35015 6.17386 6.49178 7.03206C5.63331 7.89026 5.20435 8.92779 5.20435 10.1444C5.20435 11.3614 5.63331 12.3985 6.49178 13.257C7.35041 14.1155 8.38785 14.5447 9.60444 14.5447C10.821 14.5447 11.8586 14.1152 12.7168 13.257C13.575 12.3985 14.0042 11.3611 14.0042 10.1444C14.0042 8.92779 13.575 7.89026 12.7168 7.03206C11.8586 6.17386 10.821 5.74463 9.60444 5.74463Z" fill="#07183B"/>
<path d="M38.5034 19.6441C38.0369 19.1774 37.4703 18.9443 36.8039 18.9443C36.1368 18.9443 35.5702 19.1774 35.1037 19.6441C34.6374 20.1108 34.4043 20.6776 34.4043 21.3447C34.4043 22.011 34.6374 22.5786 35.1037 23.0443C35.5705 23.5112 36.1368 23.7442 36.8039 23.7442C37.4703 23.7442 38.0373 23.5112 38.5034 23.0443C38.9703 22.5781 39.2032 22.011 39.2032 21.3447C39.2032 20.678 38.9707 20.1111 38.5034 19.6441Z" fill="#07183B"/>
<path d="M32.0037 29.7441C31.2366 29.7441 30.5783 30.0189 30.0282 30.5691C29.4786 31.1186 29.2035 31.7773 29.2035 32.5444C29.2035 33.3109 29.4786 33.9696 30.0282 34.5198C30.5783 35.0699 31.2367 35.3444 32.0037 35.3444C32.7703 35.3444 33.4286 35.0693 33.9787 34.5198C34.5289 33.9696 34.8037 33.3113 34.8037 32.5444C34.8037 31.7773 34.5289 31.1193 33.9787 30.5691C33.4286 30.0188 32.7703 29.7441 32.0037 29.7441Z" fill="#07183B"/>
<path d="M20.8038 34.1436C19.9205 34.1436 19.1662 34.4567 18.5409 35.0818C17.9161 35.7069 17.6035 36.4607 17.6035 37.3441C17.6035 38.2276 17.9158 38.9815 18.5409 39.6065C19.1662 40.2316 19.9202 40.5445 20.8038 40.5445C21.6873 40.5445 22.4412 40.2316 23.0663 39.6065C23.6914 38.9815 24.0039 38.2276 24.0039 37.3441C24.0039 36.4607 23.6914 35.7069 23.0663 35.0818C22.4412 34.4567 21.6873 34.1436 20.8038 34.1436Z" fill="#07183B"/>
<path d="M20.8038 0.544434C19.4707 0.544434 18.3368 1.01088 17.4034 1.94421C16.4703 2.87762 16.0037 4.0112 16.0037 5.34443C16.0037 6.67774 16.4701 7.8108 17.4034 8.7443C18.3368 9.67746 19.4704 10.1442 20.8038 10.1442C22.1376 10.1442 23.2706 9.67772 24.2037 8.7443C25.1368 7.81124 25.6034 6.67774 25.6034 5.34443C25.6034 4.01129 25.1368 2.87797 24.2037 1.94421C23.2706 1.01114 22.1376 0.544434 20.8038 0.544434Z" fill="#07183B"/>
</g>
<defs>
<clipPath id="clip0_329_1324">
<rect width="40" height="40" fill="white" transform="translate(0.00366211 0.544434)"/>
</clipPath>
</defs>
</svg>
