<svg width="20" height="21" viewBox="0 0 20 21" fill="none" xmlns="http://www.w3.org/2000/svg">
<path d="M19.4449 9.5888C19.9518 9.07446 20.1306 8.31957 19.9119 7.61908C19.6935 6.91831 19.1229 6.41715 18.4226 6.31116L14.0989 5.65677C13.8794 5.62341 13.6898 5.4799 13.5916 5.27288L11.658 1.19152C11.3449 0.530946 10.711 0.120605 10.0036 0.120605C9.29628 0.120605 8.66233 0.530946 8.34925 1.19152L6.41562 5.27284C6.31749 5.47994 6.12784 5.62345 5.9087 5.65673L1.58472 6.31112C0.884409 6.41715 0.313746 6.91831 0.0955035 7.61872C-0.123364 8.31957 0.0555035 9.0745 0.562183 9.58868L3.69101 12.7658C3.84972 12.9269 3.92214 13.1589 3.88476 13.3862L3.14601 17.8723C3.02663 18.5986 3.30785 19.3187 3.87992 19.7515C4.4521 20.1846 5.19663 20.2407 5.82304 19.8979L9.6903 17.78C9.88647 17.6727 10.1207 17.6727 10.3167 17.7799L14.1843 19.8979C14.8107 20.2407 15.5552 20.1846 16.1274 19.7515C16.6994 19.3186 16.9807 18.5986 16.8613 17.8723L16.1225 13.3864C16.0851 13.1589 16.1575 12.9269 16.3164 12.7657L19.4449 9.5888Z" fill="#F3C87A"/>
</svg>
